HIERARCHY
ROOT Hips
{
	OFFSET	0.00	0.00	0.00
	CHANNELS 6 Xposition Yposition Zposition Zrotation Xrotation Yrotation
	JOINT LeftUpLeg
	{
		OFFSET	 0.126116	-0.065224	 0.014019
		CHANNELS 3 Zrotation Xrotation Yrotation
		JOINT LeftLeg
		{
			OFFSET	 0.000000	 0.569914	 0.000000
			CHANNELS 3 Zrotation Xrotation Yrotation
			JOINT LeftFoot
			{
				OFFSET	 0.000000	 0.544423	 0.000000
				CHANNELS 3 Zrotation Xrotation Yrotation
				JOINT LeftToeBase
				{
					OFFSET	 0.000000	 0.207117	 0.000000
					CHANNELS 3 Zrotation Xrotation Yrotation
					End Site
					{
						OFFSET	 0.000000	 0.207117	 0.000000
					}
				}
			}
		}
	}
	JOINT RightUpLeg
	{
		OFFSET	-0.124023	-0.065224	 0.008373
		CHANNELS 3 Zrotation Xrotation Yrotation
		JOINT RightLeg
		{
			OFFSET	 0.000000	 0.570047	 0.000000
			CHANNELS 3 Zrotation Xrotation Yrotation
			JOINT RightFoot
			{
				OFFSET	 0.000000	 0.544354	 0.000000
				CHANNELS 3 Zrotation Xrotation Yrotation
				JOINT RightToeBase
				{
					OFFSET	 0.000000	 0.207540	 0.000000
					CHANNELS 3 Zrotation Xrotation Yrotation
					End Site
					{
						OFFSET	 0.000000	 0.207540	 0.000000
					}
				}
			}
		}
	}
	JOINT Spine
	{
		OFFSET	 0.000184	 0.117403	 0.007763
		CHANNELS 3 Zrotation Xrotation Yrotation
		JOINT Spine1
		{
			OFFSET	 0.000000	 0.137269	 0.000000
			CHANNELS 3 Zrotation Xrotation Yrotation
			JOINT Spine2
			{
				OFFSET	 0.000000	 0.156879	 0.000000
				CHANNELS 3 Zrotation Xrotation Yrotation
				JOINT LeftShoulder
				{
					OFFSET	 0.080501	 0.160143	 0.002496
					CHANNELS 3 Zrotation Xrotation Yrotation
					JOINT LeftArm
					{
						OFFSET	 0.000000	 0.164363	 0.000000
						CHANNELS 3 Zrotation Xrotation Yrotation
						JOINT LeftForeArm
						{
							OFFSET	 0.000000	 0.364576	 0.000000
							CHANNELS 3 Zrotation Xrotation Yrotation
							JOINT LeftHand
							{
								OFFSET	 0.000000	 0.360812	 0.000000
								CHANNELS 3 Zrotation Xrotation Yrotation
								JOINT LeftHandIndex1
								{
									OFFSET	 0.000000	 0.086006	 0.000000
									CHANNELS 3 Zrotation Xrotation Yrotation
									JOINT LeftHandIndex2
									{
										OFFSET	 0.000000	 0.047237	 0.000000
										CHANNELS 3 Zrotation Xrotation Yrotation
										JOINT LeftHandIndex3
										{
											OFFSET	-0.004284	 0.038165	 0.000551
											CHANNELS 3 Zrotation Xrotation Yrotation
											End Site
											{
												OFFSET	-0.004284	 0.038165	 0.000551
											}
										}
									}
								}
							}
						}
					}
				}
				JOINT Neck
				{
					OFFSET	 0.000000	 0.176489	 0.000000
					CHANNELS 3 Zrotation Xrotation Yrotation
					JOINT Head
					{
						OFFSET	 0.000000	 0.077941	 0.001747
						CHANNELS 3 Zrotation Xrotation Yrotation
						End Site
						{
							OFFSET	 0.000000	 0.077941	 0.001747
						}
					}
				}
				JOINT RightShoulder
				{
					OFFSET	-0.080363	 0.159706	-0.000306
					CHANNELS 3 Zrotation Xrotation Yrotation
					JOINT RightArm
					{
						OFFSET	 0.000000	 0.164196	 0.000000
						CHANNELS 3 Zrotation Xrotation Yrotation
						JOINT RightForeArm
						{
							OFFSET	 0.000000	 0.365611	 0.000000
							CHANNELS 3 Zrotation Xrotation Yrotation
							JOINT RightHand
							{
								OFFSET	 0.000000	 0.360648	 0.000000
								CHANNELS 3 Zrotation Xrotation Yrotation
								JOINT RightHandIndex1
								{
									OFFSET	 0.000000	 0.069977	 0.000000
									CHANNELS 3 Zrotation Xrotation Yrotation
									JOINT RightHandIndex2
									{
										OFFSET	 0.000000	 0.052305	 0.000000
										CHANNELS 3 Zrotation Xrotation Yrotation
										JOINT RightHandIndex3
										{
											OFFSET	 0.009002	 0.042196	 0.000782
											CHANNELS 3 Zrotation Xrotation Yrotation
											End Site
											{
												OFFSET	 0.009002	 0.042196	 0.000782
											}
										}
									}
								}
							}
						}
					}
				}
			}
		}
	}
}
MOTION
Frames:    5
Frame Time: 0.03333334
-0.015568	 1.255863	 0.115320	 4.152896	 0.253500	 174.014700	-167.556700	 14.391520	-0.557499	 2.015249	-20.877230	 0.947111	 42.937840	 44.642360	-59.238860	 4.912823	 28.009650	-6.307259	-176.285300	 5.841605	 5.764114	-1.880023	-20.839890	 1.834706	-56.580000	 59.160400	 65.076200	-0.375444	 31.170380	 1.631998	 1.253208	 4.472058	 0.156633	 7.317512	 4.860184	 0.204584	-5.451407	-1.800617	 3.092450	-112.572800	 3.140147	 88.315790	-0.296086	 51.067560	 26.863570	 16.745590	-0.870390	 0.696419	 2.151411	-0.878473	-43.715350	-8.025439	 12.502670	-5.831190	-7.228703	 12.665640	 2.804234	 4.963066	-4.014628	-0.346955	 1.528192	-13.929950	 1.347994	-1.975764	 8.487181	-27.523650	 109.137600	 0.665499	-88.590530	-12.056550	 62.683410	 11.580150	-5.083342	-0.469755	 41.403030	-10.375740	 0.903968	-52.720760	 2.021950	 8.325932	 8.960834	 15.202860	 20.243160	-6.342599	-8.239867	-2.131385	 0.447455
-0.015670	 1.255405	 0.114976	 4.015831	 0.126025	 174.182600	-167.752400	 14.652080	-0.371867	 2.034986	-21.063650	 1.031750	 43.123680	 44.625030	-59.439270	 4.912828	 28.009690	-6.307231	-176.446600	 6.169486	 5.942061	-1.919391	-21.237610	 1.629050	-57.048550	 59.131260	 65.630770	-0.391570	 31.190080	 1.647991	 1.204670	 4.505163	 0.718024	 6.813715	 4.014096	 0.162721	-4.780305	-1.141919	 3.022598	-112.481100	 3.025343	 88.300060	 1.514076	 52.055080	 25.222780	 14.419740	-0.750483	 0.678665	 2.461703	-1.338458	-42.661190	-7.919803	 12.589250	-5.857383	-7.229182	 12.645550	 2.801491	 4.963066	-4.014628	-0.346955	 1.433552	-13.786200	 1.396423	-1.918907	 8.973442	-27.821680	 109.023000	 0.753048	-88.634900	-12.452380	 62.566840	 12.288910	-5.099294	-0.487502	 41.102480	-9.047441	 0.855772	-53.165580	 1.931064	 8.080743	 8.958536	 15.203220	 20.297550	-6.357483	-8.239867	-2.131385	 0.447455
-0.015785	 1.254980	 0.114595	 3.894287	 0.016881	 174.323700	-167.929500	 14.882630	-0.211022	 2.054766	-21.250200	 1.103352	 43.297070	 44.622860	-59.630940	 4.912834	 28.009710	-6.307209	-176.592700	 6.452179	 6.093506	-1.954705	-21.592380	 1.459734	-57.454190	 59.118370	 66.114200	-0.405234	 31.206770	 1.661542	 1.167946	 4.540680	 1.166798	 6.370109	 3.220353	 0.102797	-4.186940	-0.538485	 2.990278	-112.403500	 2.928104	 88.286870	 3.471871	 52.979110	 23.476680	 11.967050	-0.623108	 0.662044	 2.899655	-1.777907	-41.836140	-7.830285	 12.662520	-5.879700	-7.229589	 12.628540	 2.799169	 4.963066	-4.014628	-0.346955	 1.353351	-13.664510	 1.437603	-1.866209	 9.391961	-28.067710	 108.926000	 0.827255	-88.672360	-12.811420	 62.462120	 12.907190	-5.114192	-0.502469	 40.848680	-7.866986	 0.806625	-53.623800	 1.854126	 7.873092	 8.956288	 15.203550	 20.343610	-6.370093	-8.239867	-2.131385	 0.447455
-0.015910	 1.254559	 0.114180	 3.777178	-0.083947	 174.453400	-168.102300	 15.100570	-0.060162	 2.074967	-21.440210	 1.169132	 43.467180	 44.629450	-59.821330	 4.912838	 28.009740	-6.307188	-176.735500	 6.716087	 6.233491	-1.988757	-21.933080	 1.307577	-57.835760	 59.114670	 66.571260	-0.417822	 31.222130	 1.674027	 1.138863	 4.581433	 1.552371	 5.936555	 2.428342	 0.022203	-3.609592	 0.057106	 2.991014	-112.332000	 2.838560	 88.274870	 5.991610	 53.949020	 21.269810	 8.904881	-0.462981	 0.644590	 3.636318	-2.244538	-41.148800	-7.747803	 12.729970	-5.900361	-7.229965	 12.612870	 2.797030	 4.963066	-4.014628	-0.346955	 1.279452	-13.552500	 1.475662	-1.813320	 9.785212	-28.286550	 108.836700	 0.895658	-88.706710	-13.165670	 62.355760	 13.495170	-5.125587	-0.515883	 40.615380	-6.725153	 0.765004	-54.126950	 1.783300	 7.681864	 8.953966	 15.203850	 20.386030	-6.381708	-8.239867	-2.131385	 0.447455
-0.015997	 1.254214	 0.113745	 3.640656	-0.189636	 174.586800	-168.292700	 15.295040	 0.088111	 2.088783	-21.569770	 1.229615	 43.614250	 44.619830	-59.975350	 4.912842	 28.009770	-6.307167	-176.896100	 6.974252	 6.367487	-2.020874	-22.252830	 1.165065	-58.204260	 59.103970	 67.013870	-0.429944	 31.236910	 1.686048	 1.100173	 4.619241	 1.886793	 5.466891	 1.605743	-0.089428	-3.004918	 0.673577	 3.030826	-112.263300	 2.752353	 88.263400	 9.152838	 54.942570	 18.514530	 5.207568	-0.268301	 0.632089	 4.639624	-2.760975	-40.575980	-7.668373	 12.794860	-5.920344	-7.230327	 12.597790	 2.794971	 4.963066	-4.014628	-0.346955	 1.208289	-13.444750	 1.512415	-1.757693	 10.173550	-28.487220	 108.750900	 0.961555	-88.739710	-13.529500	 62.251090	 14.078610	-5.136569	-0.528679	 40.391190	-5.562554	 0.737615	-54.706620	 1.715153	 7.497815	 8.951509	 15.204160	 20.426850	-6.392890	-8.239867	-2.131385	 0.447455
